<?xml version="1.0" encoding="UTF-8"?>
<svg width="512px" height="512px" viewBox="0 0 512 512" version="1.1" xmlns="http://www.w3.org/2000/svg" xmlns:xlink="http://www.w3.org/1999/xlink">
    <!-- Generator: Sketch 51.3 (57544) - http://www.bohemiancoding.com/sketch -->
    <title>vscode icon</title>
    <desc>Created with Sketch.</desc>
    <defs></defs>
    <g id="vscode-icon" stroke="none" stroke-width="1" fill="none" fill-rule="evenodd">
        <g id="coding" transform="translate(7.000000, 128.000000)" fill-rule="nonzero">
            <path d="M156.077765,17.7294507 L134.054523,2.55654683 C127.351797,-1.43632263 119.691538,-0.637748658 113.946344,4.15369477 L2.87259688,120.745481 C-0.957532293,124.738351 -0.957532293,131.126941 2.87259688,135.918385 L114.903876,251.711597 C119.691538,256.503041 128.309329,258.100188 135.012055,253.308745 L157.035298,238.135841 C163.738024,234.142972 164.695556,226.157233 158.950362,221.36579 L68.9423257,127.932646 L159.907894,34.4995021 C163.738024,29.7080587 162.780491,22.5208937 156.077765,17.7294507 Z" id="Path" fill="#FFFFFF"></path>
            <path d="M495.682257,120.283415 L383.650977,4.49020258 C378.863316,-0.301240851 370.245525,-1.89838839 363.542799,2.89305464 L341.519556,18.0659585 C334.81683,22.058828 333.859298,30.0445669 339.604491,34.8360099 L430.57006,128.269154 L339.604491,221.702298 C334.81683,226.493741 335.774362,234.47948 341.519556,238.472349 L363.542799,253.645253 C370.245525,257.638122 377.905784,256.839548 383.650977,252.048105 L495.682257,135.456319 C499.512386,129.866302 499.512386,124.276284 495.682257,120.283415 Z" id="Path" fill="#FFFFFF"></path>
            <path d="M273.438431,0.352117006 C265.737954,-1.24474297 257.074917,2.74740656 255.149798,9.13484565 L183.920384,235.888936 C181.995264,242.276375 186.808063,248.663814 194.50854,250.260673 L223.385329,255.849683 C231.085807,257.446543 239.748843,253.454393 241.673963,247.066954 L312.903377,20.3128642 C314.828496,13.1269952 310.015698,7.53798608 302.31522,5.9411261 L273.438431,0.352117006 Z" id="Path" fill="#009688"></path>
        </g>
    </g>
</svg>