<?xml version="1.0" standalone="no"?><!DOCTYPE svg PUBLIC "-//W3C//DTD SVG 1.1//EN" "http://www.w3.org/Graphics/SVG/1.1/DTD/svg11.dtd"><svg t="1570072346001" class="icon" viewBox="0 0 1024 1024" version="1.1" xmlns="http://www.w3.org/2000/svg" p-id="3321" xmlns:xlink="http://www.w3.org/1999/xlink" width="200" height="200"><defs><style type="text/css"></style></defs><path d="M729.331968 0.02746H294.625678A106.116739 106.116739 0 0 0 186.181818 102.420804v819.146756A106.116739 106.116739 0 0 0 294.625678 1023.960904h434.240866A106.116739 106.116739 0 0 0 837.775828 921.56756V102.420804A106.116739 106.116739 0 0 0 729.331968 0.02746zM390.037658 69.37568h244.347754a13.03188 13.03188 0 0 1 13.497305 13.03188 13.03188 13.03188 0 0 1-13.497305 10.704759H390.037658a13.03188 13.03188 0 0 1-13.497304-13.031881 13.03188 13.03188 0 0 1 13.497304-10.704758z m112.632679 921.5401a38.630216 38.630216 0 1 1 40.957338-38.630217 39.561065 39.561065 0 0 1-40.957338 38.630217z m274.134909-113.098104H247.152401V120.572352h529.652845z" fill="#323333" p-id="3322"></path></svg>