<?xml version="1.0" standalone="no"?><!DOCTYPE svg PUBLIC "-//W3C//DTD SVG 1.1//EN" "http://www.w3.org/Graphics/SVG/1.1/DTD/svg11.dtd"><svg t="1574514530246" class="icon" viewBox="0 0 1024 1024" version="1.1" xmlns="http://www.w3.org/2000/svg" p-id="3424" xmlns:xlink="http://www.w3.org/1999/xlink" width="200" height="200"><defs><style type="text/css"></style></defs><path d="M262.826667 273.066667h95.573333V150.186667C320.853333 170.666667 286.72 215.04 262.826667 273.066667zM187.733333 477.866667c0-61.44 10.24-119.466667 27.306667-170.666667H64.853333C37.546667 358.4 20.48 416.426667 17.066667 477.866667h170.666666zM358.4 477.866667V307.2H249.173333c-17.066667 51.2-27.306667 109.226667-27.306666 170.666667h136.533333zM187.733333 512h-170.666666c3.413333 61.44 20.48 119.466667 47.786666 170.666667h150.186667c-17.066667-51.2-27.306667-109.226667-27.306667-170.666667zM358.4 512h-136.533333c0 61.44 10.24 119.466667 27.306666 170.666667h109.226667v-170.666667zM225.28 273.066667c30.72-78.506667 75.093333-133.12 129.706667-157.013334v-3.413333c-6.826667-3.413333-13.653333-3.413333-17.066667-3.413333-105.813333 20.48-194.56 81.92-252.586667 163.84h139.946667zM225.28 716.8H85.333333c58.026667 81.92 146.773333 143.36 252.586667 163.84h3.413333c3.413333 0 6.826667 0 10.24-3.413333v-3.413334c-51.2-23.893333-95.573333-78.506667-126.293333-157.013333zM358.4 839.68V716.8H262.826667c23.893333 58.026667 58.026667 102.4 95.573333 122.88z" p-id="3425" fill="#323333"></path><path d="M392.533333 170.666667h614.4v648.533333h-614.4zM1006.933333 136.533333v-17.066666C1006.933333 54.613333 952.32 0 887.466667 0H512c-64.853333 0-119.466667 54.613333-119.466667 119.466667V136.533333h614.4zM853.333333 68.266667c10.24 0 17.066667 6.826667 17.066667 17.066666s-6.826667 17.066667-17.066667 17.066667-17.066667-6.826667-17.066666-17.066667 6.826667-17.066667 17.066666-17.066666z m-238.933333 0h170.666667c10.24 0 17.066667 6.826667 17.066666 17.066666s-6.826667 17.066667-17.066666 17.066667h-170.666667c-10.24 0-17.066667-6.826667-17.066667-17.066667s6.826667-17.066667 17.066667-17.066666zM392.533333 853.333333v51.2c0 64.853333 54.613333 119.466667 119.466667 119.466667h375.466667c64.853333 0 119.466667-54.613333 119.466666-119.466667V853.333333h-614.4z m307.2 102.4c-20.48 0-34.133333-13.653333-34.133333-34.133333s13.653333-34.133333 34.133333-34.133333 34.133333 13.653333 34.133334 34.133333-17.066667 34.133333-34.133334 34.133333z" p-id="3426" fill="#323333"></path></svg>